<?xml version="1.0" encoding="UTF-8"?>
<svg id="_レイヤー_1" data-name="レイヤー 1" xmlns="http://www.w3.org/2000/svg" viewBox="0 0 568.67 122.78">
  <defs>
    <style>
      .cls-1 {
        fill: #273343;
      }

      .cls-2 {
        fill: #2a626f;
      }
    </style>
  </defs>
  <g>
    <path class="cls-1" d="M236.58,100.41l10.36,10.63c-3.91,4.87-9.33,7.88-15.3,9.8-17.28,4.59-37.25-.55-45.45-16.81-7.48-14.83-3.3-34.07,10.49-43.03,11.51-7.48,26.64-8.1,38.66-1.5,12.32,6.76,17.07,20.73,15.68,34.2l-50.21-.06c1.7,7.5,8.1,12.42,15.64,13.18,7.3.91,14.64-.87,20.14-6.41ZM233.71,82.39c-1.32-8.19-7.68-13.07-15.58-13.43-8.57-.39-16.11,5.01-17.46,13.41l33.04.02Z"/>
    <path class="cls-1" d="M139.57,70.75c-8.39,0-14.51,5.59-14.55,14.01l-.16,36.54-18.28.1V55.95s17.14-.02,17.14-.02l.03,7.66c11.83-12.54,35.03-11.5,43.36,3.2,2.63,4.64,3.37,9.85,3.82,15.22l.02,39.35-18.53-.06-.2-38.4c-.04-7.37-5.44-12.15-12.65-12.15Z"/>
    <path class="cls-1" d="M62.86,120.43c-11.11,3.4-22.67,3.05-33.32-.62C11.75,113.68.36,97.58,0,78.86c-.32-16.77,8.34-32.11,23.4-39.69s32.84-7.65,47.59.14c12.87,6.79,20.97,18.84,22.74,33.15,2.65,21.37-9.91,41.54-30.88,47.97ZM74.97,78.09c0-15.41-12.5-27.9-27.92-27.9s-27.92,12.49-27.92,27.9,12.5,27.9,27.92,27.9,27.92-12.49,27.92-27.9Z"/>
    <path class="cls-1" d="M341.27,105.03c8.64,3.83,19.82,2.3,26.49-4.63l10.35,10.42c-8.79,11.46-26.94,13.91-40.69,9.66s-22.83-15.84-23.52-30.09c-.52-10.68,3.49-21.16,11.97-27.86,15.46-12.2,40.76-9.65,51.28,7.11,4.48,7.13,5.84,15.49,5.1,24.03l-50.02-.02c.92,5,4.26,9.26,9.03,11.37ZM364.94,82.32c-1.53-8.75-8.18-13.3-15.93-13.36-8.37-.34-15.68,5.28-17.03,13.43l32.96-.07Z"/>
    <path class="cls-1" d="M403.43,120.87c-11.43-3.58-16.88-15.37-12.25-26.28,3.73-8.78,14.48-12.2,24.06-12.27l17.12-.11c.41-5.84-3.43-10.98-9.39-12.13-8.41-1.62-16.89.32-24.15,5.56l-6.73-12.28,4.99-3.22c10.92-5.28,23.42-6.76,35.12-3.53,11.81,3.26,18.6,12.48,18.64,24.47l.15,40.25h-16.84s-.11-7.45-.11-7.45c-3.31,4.16-7.42,6.95-12.67,7.88-5.99,1.06-11.89.99-17.94-.9ZM431.4,102.87c1.49-2.73,1.22-6.05,1.07-9.24l-15.54.16c-2.69.03-6.01,1.05-7.77,3.11-2.41,2.82-2.03,7.54.54,10.05,4.64,4.52,17.3,3.97,21.7-4.08Z"/>
    <path class="cls-1" d="M525.09,83.28l-.27,38.04-18.48-.04v-36.11c-.02-7.73-2.91-13.56-10.63-14.26-5.07-.46-10,1.43-12.45,6.08-1.45,2.75-1.94,6-2.25,9.23v35.14s-18.28-.06-18.28-.06l.03-65.29,17.13-.11.1,7.71c10.1-11.82,31.79-11.88,40.45,1.7,7.58-10.21,22.44-12.78,34.15-8,9.87,4.02,13.62,13.4,14.07,23.9l.02,40.13-18.39.03v-37.22c-.39-3.83-1.07-7.63-3.76-10.36-2.71-2.75-6.49-3.17-10.53-2.78-5.75.56-10.86,5.79-10.91,12.29Z"/>
  </g>
  <polygon class="cls-2" points="272.81 121.29 272.81 50.82 244.75 50.86 244.81 35.04 312.59 35.02 326.39 21.23 314.68 11.37 358.17 0 348.19 43.9 337.78 32.09 319.38 50.88 292.08 50.85 292.07 121.28 272.81 121.29"/>
</svg>